# xmcd
#
# Track frame offsets:
#	150
#	22733
#	43194
#	62014
#	75096
#	84417
#	102940
#	116646
#	133171
#	148404
#	164317
#	179061
#	192264
#	209001
#	227836
#	257346
#	271834
#	291018
#	305910
#
# Disc length: 4402 seconds
#
# Revision: 0
# Processed by: cddbd v1.5PL3 Copyright (c) Steve Scherf et al.
# Submitted via: dBpowerAMP V4.0
#
DISCID=13113013
DTITLE=JOÃO HAROLDO and BETINHO - Ao Vivo
DYEAR=1900
DGENRE=
TTITLE0=Coração Idiota
TTITLE1=Esperando Na Janela
TTITLE2=Cai Na Real
TTITLE3=Só Fazendo Amor
TTITLE4=Pagode
TTITLE5=24 Horas De Amor
TTITLE6=Desejos
TTITLE7=Duas Vezes Você 
TTITLE8=Preciso Amar De Novo
TTITLE9=Se Você Quer
TTITLE10=Telefone Mudo
TTITLE11=Fui Dando Porrada
TTITLE12=Pedacinhos
TTITLE13=Te Amo E Não Te Quero
TTITLE14=Pode Voltar Paixão
TTITLE15=Por Você
TTITLE16=Último Adeus
TTITLE17=Hoje Não É Nosso Dia
TTITLE18=Bônus
EXTD=
EXTT0=
EXTT1=
EXTT2=
EXTT3=
EXTT4=
EXTT5=
EXTT6=
EXTT7=
EXTT8=
EXTT9=
EXTT10=
EXTT11=
EXTT12=
EXTT13=
EXTT14=
EXTT15=
EXTT16=
EXTT17=
EXTT18=
PLAYORDER=
